<svg width="1440" height="154" viewBox="4 0 1436=2 154" fill="none"
  xmlns="http://www.w3.org/2000/svg">
  <path d="M0 0H1440V87L720 154L0 87V0Z" fill="url(#paint0_linear)"/>
  <mask id="mask0" mask-type="alpha" maskUnits="userSpaceOnUse" x="0" y="0" width="1440" height="154">
    <path d="M0 0H1440V87L720 154L0 87V0Z" fill="url(#paint1_linear)"/>
  </mask>
  <g mask="url(#mask0)">
    <path d="M1289.73 36.7997C1289.9 36.8975 1290.11 36.8975 1290.28 36.7997L1296.68 33.1052C1296.85 33.0074 1296.96 32.8267 1296.96 32.6312V25.2422C1296.96 25.0466 1296.85 24.8659 1296.68 24.7682L1290.28 21.0736C1290.11 20.9759 1289.9 20.9759 1289.73 21.0736L1283.32 24.7682C1283.15 24.8659 1283.05 25.0466 1283.05 25.2422V32.6312C1283.05 32.8267 1283.15 33.0074 1283.32 33.1052L1289.73 36.7997ZM1290 36.3257L1283.59 32.6312V25.2422L1290 21.5476L1296.41 25.2422V32.6312L1290 36.3257Z" fill="#9B51FF"/>
    <path d="M1058.78 36.7997C1058.95 36.8975 1059.16 36.8975 1059.33 36.7997L1065.73 33.1052C1065.9 33.0074 1066.01 32.8267 1066.01 32.6312V25.2422C1066.01 25.0466 1065.9 24.8659 1065.73 24.7682L1059.33 21.0736C1059.16 20.9759 1058.95 20.9759 1058.78 21.0736L1052.37 24.7682C1052.2 24.8659 1052.1 25.0466 1052.1 25.2422V32.6312C1052.1 32.8267 1052.2 33.0074 1052.37 33.1052L1058.78 36.7997ZM1059.05 36.3257L1052.65 32.6312V25.2422L1059.05 21.5476L1065.46 25.2422V32.6312L1059.05 36.3257Z" fill="#9B51FF"/>
    <path d="M1210.36 37.5927C1210.53 37.6905 1210.74 37.6905 1210.91 37.5927L1217.32 33.8982C1217.49 33.8004 1217.59 33.6197 1217.59 33.4242V26.0351C1217.59 25.8396 1217.49 25.6589 1217.32 25.5611L1210.91 21.8666C1210.74 21.7688 1210.53 21.7688 1210.36 21.8666L1203.96 25.5611C1203.79 25.6589 1203.68 25.8396 1203.68 26.0351V33.4242C1203.68 33.6197 1203.79 33.8004 1203.96 33.8982L1210.36 37.5927ZM1210.64 37.1187L1204.23 33.4242V26.0351L1210.64 22.3406L1217.05 26.0351V33.4242L1210.64 37.1187Z" fill="#9B51FF"/>
    <path d="M1361.9 37.5927C1362.07 37.6905 1362.27 37.6905 1362.44 37.5927L1368.8 33.8982C1368.97 33.8004 1369.07 33.6197 1369.07 33.4242V26.0351C1369.07 25.8396 1368.97 25.6589 1368.8 25.5611L1362.44 21.8666C1362.27 21.7688 1362.07 21.7688 1361.9 21.8666L1355.54 25.5611C1355.37 25.6589 1355.27 25.8396 1355.27 26.0351V33.4242C1355.27 33.6197 1355.37 33.8004 1355.54 33.8982L1361.9 37.5927ZM1362.17 37.1187L1355.81 33.4242V26.0351L1362.17 22.3406L1368.53 26.0351V33.4242L1362.17 37.1187Z" fill="#9B51FF"/>
    <path d="M1360.46 108.146C1360.82 108.351 1361.25 108.351 1361.6 108.146L1374.96 100.387C1375.31 100.182 1375.53 99.8026 1375.53 99.3919V83.8749C1375.53 83.4643 1375.31 83.0848 1374.96 82.8795L1361.6 75.121C1361.25 74.9157 1360.82 74.9157 1360.46 75.121L1347.11 82.8795C1346.76 83.0848 1346.54 83.4643 1346.54 83.8749V99.3919C1346.54 99.8026 1346.76 100.182 1347.11 100.387L1360.46 108.146ZM1361.03 107.15L1347.68 99.3919V83.8749L1361.03 76.1164L1374.39 83.8749V99.3919L1361.03 107.15Z" fill="#C17BFF"/>
    <path d="M1132.54 37.5927C1132.71 37.6905 1132.91 37.6905 1133.08 37.5927L1139.44 33.8982C1139.61 33.8004 1139.71 33.6197 1139.71 33.4242V26.0351C1139.71 25.8396 1139.61 25.6589 1139.44 25.5611L1133.08 21.8666C1132.91 21.7688 1132.71 21.7688 1132.54 21.8666L1126.18 25.5611C1126.01 25.6589 1125.91 25.8396 1125.91 26.0351V33.4242C1125.91 33.6197 1126.01 33.8004 1126.18 33.8982L1132.54 37.5927ZM1132.81 37.1187L1126.45 33.4242V26.0351L1132.81 22.3406L1139.17 26.0351V33.4242L1132.81 37.1187Z" fill="#9B51FF"/>
    <path d="M1288.35 107.353C1288.7 107.558 1289.14 107.558 1289.5 107.353L1302.95 99.5944C1303.31 99.389 1303.53 99.0096 1303.53 98.5989V83.082C1303.53 82.6713 1303.31 82.2919 1302.95 82.0866L1289.5 74.3281C1289.14 74.1227 1288.7 74.1227 1288.35 74.3281L1274.89 82.0866C1274.54 82.2919 1274.32 82.6713 1274.32 83.082V98.5989C1274.32 99.0096 1274.54 99.389 1274.89 99.5944L1288.35 107.353ZM1288.92 106.357L1275.47 98.5989V83.082L1288.92 75.3235L1302.38 83.082V98.5989L1288.92 106.357Z" fill="#BC71FF"/>
    <path d="M1208.98 107.353C1209.34 107.558 1209.78 107.558 1210.13 107.353L1223.59 99.5944C1223.95 99.389 1224.16 99.0096 1224.16 98.5989V83.082C1224.16 82.6713 1223.95 82.2919 1223.59 82.0866L1210.13 74.3281C1209.78 74.1227 1209.34 74.1227 1208.98 74.3281L1195.53 82.0866C1195.17 82.2919 1194.95 82.6713 1194.95 83.082V98.5989C1194.95 99.0096 1195.17 99.389 1195.53 99.5944L1208.98 107.353ZM1209.56 106.357L1196.1 98.5989V83.082L1209.56 75.3235L1223.01 83.082V98.5989L1209.56 106.357Z" fill="#BC71FF"/>
    <path d="M1058.99 108.145C1059.34 108.35 1059.78 108.35 1060.14 108.145L1073.59 100.386C1073.95 100.181 1074.17 99.8016 1074.17 99.3909V83.874C1074.17 83.4633 1073.95 83.0839 1073.59 82.8786L1060.14 75.1201C1059.78 74.9147 1059.34 74.9147 1058.99 75.1201L1045.53 82.8786C1045.17 83.0839 1044.96 83.4633 1044.96 83.874V99.3909C1044.96 99.8016 1045.17 100.181 1045.53 100.386L1058.99 108.145ZM1059.56 107.149L1046.11 99.3909V83.874L1059.56 76.1155L1073.02 83.874V99.3909L1059.56 107.149Z" fill="#BC71FF"/>
    <path d="M1131.1 108.145C1131.45 108.35 1131.89 108.35 1132.24 108.145L1145.6 100.386C1145.95 100.181 1146.17 99.8016 1146.17 99.3909V83.874C1146.17 83.4633 1145.95 83.0839 1145.6 82.8785L1132.24 75.1201C1131.89 74.9147 1131.45 74.9147 1131.1 75.1201L1117.75 82.8785C1117.39 83.0839 1117.18 83.4633 1117.18 83.874V99.3909C1117.18 99.8016 1117.39 100.181 1117.75 100.386L1131.1 108.145ZM1131.67 107.149L1118.32 99.3909V83.874L1131.67 76.1155L1145.03 83.874V99.3909L1131.67 107.149Z" fill="#BC71FF"/>
    <path fill-rule="evenodd" clip-rule="evenodd" d="M1254.55 50.3643L1251.3 55.9716H1257.79L1254.55 50.3643ZM1254.55 51.3395L1252.15 55.484H1256.95L1254.55 51.3395Z" fill="white"/>
    <path fill-rule="evenodd" clip-rule="evenodd" d="M1023.6 50.3643L1020.35 55.9716H1026.85L1023.6 50.3643ZM1023.6 51.3395L1021.2 55.484H1026L1023.6 51.3395Z" fill="white"/>
    <path fill-rule="evenodd" clip-rule="evenodd" d="M1175.11 57.6507C1176.7 57.6507 1177.99 56.3625 1177.99 54.7733C1177.99 53.1841 1176.7 51.8958 1175.11 51.8958C1173.52 51.8958 1172.23 53.1841 1172.23 54.7733C1172.23 56.3625 1173.52 57.6507 1175.11 57.6507ZM1175.11 58.0934C1176.94 58.0934 1178.43 56.607 1178.43 54.7733C1178.43 52.9396 1176.94 51.4531 1175.11 51.4531C1173.28 51.4531 1171.79 52.9396 1171.79 54.7733C1171.79 56.607 1173.28 58.0934 1175.11 58.0934Z" fill="white"/>
    <path fill-rule="evenodd" clip-rule="evenodd" d="M1328.91 52.6341H1324.37V57.2085H1328.91V52.6341ZM1323.93 52.1914V57.6512H1329.35V52.1914H1323.93Z" fill="white"/>
    <path fill-rule="evenodd" clip-rule="evenodd" d="M1099.55 52.6341H1095.01V57.2085H1099.55V52.6341ZM1094.57 52.1914V57.6512H1099.99V52.1914H1094.57Z" fill="white"/>
    <path d="M309.773 36.8007C309.943 36.8985 310.151 36.8985 310.321 36.8007L316.728 33.1062C316.898 33.0084 317.002 32.8277 317.002 32.6322V25.2431C317.002 25.0476 316.898 24.8669 316.728 24.7691L310.321 21.0746C310.151 20.9768 309.943 20.9768 309.773 21.0746L303.366 24.7691C303.196 24.8669 303.092 25.0476 303.092 25.2431V32.6322C303.092 32.8277 303.196 33.0084 303.366 33.1062L309.773 36.8007ZM310.047 36.3267L303.64 32.6322V25.2431L310.047 21.5486L316.454 25.2431V32.6322L310.047 36.3267Z" fill="#9B51FF"/>
    <path d="M78.8242 36.8007C78.9938 36.8985 79.2027 36.8985 79.3723 36.8007L85.7794 33.1062C85.949 33.0084 86.0534 32.8277 86.0534 32.6322V25.2431C86.0534 25.0476 85.949 24.8669 85.7794 24.7691L79.3723 21.0746C79.2027 20.9768 78.9938 20.9768 78.8242 21.0746L72.4171 24.7691C72.2475 24.8669 72.1431 25.0476 72.1431 25.2431V32.6322C72.1431 32.8277 72.2475 33.0084 72.4171 33.1062L78.8242 36.8007ZM79.0982 36.3267L72.6911 32.6322V25.2431L79.0982 21.5486L85.5054 25.2431V32.6322L79.0982 36.3267Z" fill="#9B51FF"/>
    <path d="M230.409 37.5937C230.579 37.6914 230.788 37.6914 230.957 37.5937L237.364 33.8991C237.534 33.8014 237.638 33.6207 237.638 33.4251V26.0361C237.638 25.8406 237.534 25.6599 237.364 25.5621L230.957 21.8676C230.788 21.7698 230.579 21.7698 230.409 21.8676L224.002 25.5621C223.832 25.6599 223.728 25.8406 223.728 26.0361V33.4251C223.728 33.6207 223.832 33.8014 224.002 33.8991L230.409 37.5937ZM230.683 37.1197L224.276 33.4251V26.0361L230.683 22.3416L237.09 26.0361V33.4251L230.683 37.1197Z" fill="#9B51FF"/>
    <path d="M381.943 37.5937C382.111 37.6914 382.319 37.6914 382.487 37.5937L388.846 33.8991C389.014 33.8014 389.118 33.6207 389.118 33.4251V26.0361C389.118 25.8406 389.014 25.6599 388.846 25.5621L382.487 21.8676C382.319 21.7698 382.111 21.7698 381.943 21.8676L375.584 25.5621C375.416 25.6599 375.312 25.8406 375.312 26.0361V33.4251C375.312 33.6207 375.416 33.8014 375.584 33.8991L381.943 37.5937ZM382.215 37.1197L375.856 33.4251V26.0361L382.215 22.3416L388.574 26.0361V33.4251L382.215 37.1197Z" fill="#9B51FF"/>
    <path d="M152.582 37.5937C152.751 37.6914 152.958 37.6914 153.126 37.5937L159.485 33.8991C159.653 33.8014 159.757 33.6207 159.757 33.4251V26.0361C159.757 25.8406 159.653 25.6599 159.485 25.5621L153.126 21.8676C152.958 21.7698 152.751 21.7698 152.582 21.8676L146.224 25.5621C146.055 25.6599 145.952 25.8406 145.952 26.0361V33.4251C145.952 33.6207 146.055 33.8014 146.224 33.8991L152.582 37.5937ZM152.854 37.1197L146.496 33.4251V26.0361L152.854 22.3416L159.213 26.0361V33.4251L152.854 37.1197Z" fill="#9B51FF"/>
    <path d="M309.979 107.353C310.335 107.558 310.774 107.558 311.13 107.353L324.585 99.5944C324.941 99.389 325.161 99.0096 325.161 98.5989V83.082C325.161 82.6713 324.941 82.2919 324.585 82.0866L311.13 74.3281C310.774 74.1227 310.335 74.1227 309.979 74.3281L296.524 82.0866C296.168 82.2919 295.949 82.6713 295.949 83.082V98.5989C295.949 99.0096 296.168 99.389 296.524 99.5944L309.979 107.353ZM310.555 106.357L297.1 98.5989V83.082L310.555 75.3235L324.01 83.082V98.5989L310.555 106.357Z" fill="#BC71FF"/>
    <path d="M79.0309 107.353C79.387 107.558 79.8257 107.558 80.1818 107.353L93.6368 99.5944C93.9929 99.389 94.2123 99.0096 94.2123 98.5989V83.082C94.2123 82.6713 93.9929 82.2919 93.6368 82.0866L80.1818 74.3281C79.8257 74.1227 79.387 74.1227 79.0309 74.3281L65.5759 82.0866C65.2198 82.2919 65.0005 82.6713 65.0005 83.082V98.5989C65.0005 99.0096 65.2198 99.389 65.5759 99.5944L79.0309 107.353ZM79.6064 106.357L66.1513 98.5989V83.082L79.6064 75.3235L93.0614 83.082V98.5989L79.6064 106.357Z" fill="#BC71FF"/>
    <path d="M230.615 108.146C230.971 108.351 231.41 108.351 231.766 108.146L245.221 100.387C245.577 100.182 245.797 99.8026 245.797 99.3919V83.8749C245.797 83.4643 245.577 83.0848 245.221 82.8795L231.766 75.121C231.41 74.9157 230.971 74.9157 230.615 75.121L217.16 82.8795C216.804 83.0848 216.585 83.4643 216.585 83.8749V99.3919C216.585 99.8026 216.804 100.182 217.16 100.387L230.615 108.146ZM231.191 107.15L217.736 99.3919V83.8749L231.191 76.1165L244.646 83.8749V99.3919L231.191 107.15Z" fill="#BC71FF"/>
    <path d="M382.094 108.146C382.447 108.351 382.882 108.351 383.236 108.146L396.589 100.387C396.942 100.182 397.16 99.8026 397.16 99.3919V83.8749C397.16 83.4643 396.942 83.0848 396.589 82.8795L383.236 75.121C382.882 74.9157 382.447 74.9157 382.094 75.121L368.741 82.8795C368.387 83.0848 368.169 83.4643 368.169 83.8749V99.3919C368.169 99.8026 368.387 100.182 368.741 100.387L382.094 108.146ZM382.665 107.15L369.312 99.3919V83.8749L382.665 76.1164L396.018 83.8749V99.3919L382.665 107.15Z" fill="#BC71FF"/>
    <path d="M152.732 108.146C153.086 108.351 153.521 108.351 153.874 108.146L167.228 100.387C167.581 100.182 167.799 99.8026 167.799 99.3919V83.8749C167.799 83.4643 167.581 83.0848 167.228 82.8795L153.874 75.121C153.521 74.9157 153.086 74.9157 152.732 75.121L139.379 82.8795C139.026 83.0848 138.808 83.4643 138.808 83.8749V99.3919C138.808 99.8026 139.026 100.182 139.379 100.387L152.732 108.146ZM153.303 107.15L139.95 99.3919V83.8749L153.303 76.1164L166.657 83.8749V99.3919L153.303 107.15Z" fill="#BC71FF"/>
    <path fill-rule="evenodd" clip-rule="evenodd" d="M346.02 50.3643L342.773 55.9716H349.266L346.02 50.3643ZM346.02 51.3395L343.62 55.484H348.419L346.02 51.3395Z" fill="white"/>
    <path fill-rule="evenodd" clip-rule="evenodd" d="M115.072 50.3643L111.825 55.9716H118.318L115.072 50.3643ZM115.072 51.3395L112.672 55.484H117.471L115.072 51.3395Z" fill="white"/>
    <path fill-rule="evenodd" clip-rule="evenodd" d="M266.582 57.6507C268.172 57.6507 269.46 56.3625 269.46 54.7733C269.46 53.1841 268.172 51.8958 266.582 51.8958C264.993 51.8958 263.705 53.1841 263.705 54.7733C263.705 56.3625 264.993 57.6507 266.582 57.6507ZM266.582 58.0934C268.416 58.0934 269.903 56.607 269.903 54.7733C269.903 52.9396 268.416 51.4531 266.582 51.4531C264.749 51.4531 263.262 52.9396 263.262 54.7733C263.262 56.607 264.749 58.0934 266.582 58.0934Z" fill="white"/>
    <path fill-rule="evenodd" clip-rule="evenodd" d="M420.385 52.6341H415.845V57.2085H420.385V52.6341ZM415.406 52.1914V57.6512H420.824V52.1914H415.406Z" fill="white"/>
    <path fill-rule="evenodd" clip-rule="evenodd" d="M191.024 52.6341H186.484V57.2085H191.024V52.6341ZM186.044 52.1914V57.6512H191.463V52.1914H186.044Z" fill="white"/>
    <path d="M971.101 96.8578C971.217 96.925 971.361 96.925 971.477 96.8578L975.88 94.3191C975.996 94.2519 976.068 94.1278 976.068 93.9934V88.916C976.068 88.7817 975.996 88.6575 975.88 88.5903L971.477 86.0516C971.361 85.9845 971.217 85.9845 971.101 86.0516L966.698 88.5903C966.582 88.6575 966.51 88.7817 966.51 88.916V93.9934C966.51 94.1278 966.582 94.2519 966.698 94.3191L971.101 96.8578ZM971.289 96.5321L966.886 93.9934V88.916L971.289 86.3774L975.692 88.916V93.9934L971.289 96.5321Z" fill="#9B51FF"/>
    <path d="M812.405 96.8578C812.521 96.925 812.665 96.925 812.782 96.8578L817.184 94.3191C817.301 94.2519 817.372 94.1278 817.372 93.9934V88.916C817.372 88.7817 817.301 88.6575 817.184 88.5903L812.782 86.0516C812.665 85.9845 812.521 85.9845 812.405 86.0516L808.002 88.5903C807.886 88.6575 807.814 88.7817 807.814 88.916V93.9934C807.814 94.1278 807.886 94.2519 808.002 94.3191L812.405 96.8578ZM812.593 96.5321L808.191 93.9934V88.916L812.593 86.3774L816.996 88.916V93.9934L812.593 96.5321Z" fill="#9B51FF"/>
    <path d="M916.566 97.4027C916.683 97.4699 916.826 97.4699 916.943 97.4027L921.345 94.8641C921.462 94.7969 921.534 94.6727 921.534 94.5383V89.461C921.534 89.3266 921.462 89.2024 921.345 89.1353L916.943 86.5966C916.826 86.5294 916.683 86.5294 916.566 86.5966L912.163 89.1353C912.047 89.2024 911.975 89.3266 911.975 89.461V94.5383C911.975 94.6727 912.047 94.7969 912.163 94.8641L916.566 97.4027ZM916.754 97.077L912.352 94.5383V89.461L916.754 86.9223L921.157 89.461V94.5383L916.754 97.077Z" fill="#9B51FF"/>
    <path d="M1020.69 97.4027C1020.81 97.4699 1020.95 97.4699 1021.07 97.4027L1025.44 94.8641C1025.55 94.7969 1025.62 94.6727 1025.62 94.5383V89.461C1025.62 89.3266 1025.55 89.2024 1025.44 89.1353L1021.07 86.5966C1020.95 86.5294 1020.81 86.5294 1020.69 86.5966L1016.32 89.1353C1016.21 89.2024 1016.14 89.3266 1016.14 89.461V94.5383C1016.14 94.6727 1016.21 94.7969 1016.32 94.8641L1020.69 97.4027ZM1020.88 97.077L1016.51 94.5383V89.461L1020.88 86.9223L1025.25 89.461V94.5383L1020.88 97.077Z" fill="#9B51FF"/>
    <path d="M1019.71 145.883C1019.95 146.025 1020.25 146.025 1020.49 145.883L1029.67 140.552C1029.91 140.411 1030.06 140.15 1030.06 139.868V129.206C1030.06 128.924 1029.91 128.663 1029.67 128.522L1020.49 123.19C1020.25 123.049 1019.95 123.049 1019.71 123.19L1010.53 128.522C1010.29 128.663 1010.14 128.924 1010.14 129.206V139.868C1010.14 140.15 1010.29 140.411 1010.53 140.552L1019.71 145.883ZM1020.1 145.199L1010.92 139.868V129.206L1020.1 123.874L1029.27 129.206V139.868L1020.1 145.199Z" fill="#C17BFF"/>
    <path d="M863.087 97.4018C863.203 97.4689 863.346 97.4689 863.461 97.4018L867.83 94.8631C867.946 94.7959 868.017 94.6717 868.017 94.5374V89.46C868.017 89.3256 867.946 89.2015 867.83 89.1343L863.461 86.5956C863.346 86.5284 863.203 86.5284 863.087 86.5956L858.718 89.1343C858.602 89.2015 858.531 89.3256 858.531 89.46V94.5374C858.531 94.6717 858.602 94.7959 858.718 94.8631L863.087 97.4018ZM863.274 97.076L858.905 94.5374V89.46L863.274 86.9213L867.644 89.46V94.5374L863.274 97.076Z" fill="#9B51FF"/>
    <path d="M970.152 145.337C970.397 145.478 970.698 145.478 970.943 145.337L980.189 140.005C980.433 139.864 980.584 139.604 980.584 139.321V128.659C980.584 128.377 980.433 128.116 980.189 127.975L970.943 122.644C970.698 122.503 970.397 122.503 970.152 122.644L960.907 127.975C960.662 128.116 960.511 128.377 960.511 128.659V139.321C960.511 139.604 960.662 139.864 960.907 140.005L970.152 145.337ZM970.548 144.653L961.302 139.321V128.659L970.548 123.328L979.793 128.659V139.321L970.548 144.653Z" fill="#BC71FF"/>
    <path d="M915.617 145.338C915.862 145.479 916.163 145.479 916.408 145.338L925.654 140.006C925.898 139.865 926.049 139.604 926.049 139.322V128.66C926.049 128.378 925.898 128.117 925.654 127.976L916.408 122.645C916.163 122.504 915.862 122.504 915.617 122.645L906.371 127.976C906.127 128.117 905.976 128.378 905.976 128.66V139.322C905.976 139.604 906.127 139.865 906.371 140.006L915.617 145.338ZM916.012 144.654L906.767 139.322V128.66L916.012 123.329L925.258 128.66V139.322L916.012 144.654Z" fill="#BC71FF"/>
    <path d="M812.547 145.882C812.791 146.024 813.093 146.024 813.338 145.882L822.583 140.551C822.828 140.41 822.979 140.149 822.979 139.867V129.205C822.979 128.923 822.828 128.662 822.583 128.521L813.338 123.19C813.093 123.048 812.791 123.048 812.547 123.19L803.301 128.521C803.056 128.662 802.906 128.923 802.906 129.205V139.867C802.906 140.149 803.056 140.41 803.301 140.551L812.547 145.882ZM812.942 145.198L803.697 139.867V129.205L812.942 123.874L822.188 129.205V139.867L812.942 145.198Z" fill="#BC71FF"/>
    <path d="M862.1 145.881C862.343 146.023 862.642 146.023 862.885 145.881L872.061 140.55C872.303 140.409 872.453 140.148 872.453 139.866V129.204C872.453 128.922 872.303 128.661 872.061 128.52L862.885 123.189C862.642 123.047 862.343 123.047 862.1 123.189L852.925 128.52C852.682 128.661 852.532 128.922 852.532 129.204V139.866C852.532 140.148 852.682 140.409 852.925 140.55L862.1 145.881ZM862.493 145.197L853.317 139.866V129.204L862.493 123.873L871.668 129.204V139.866L862.493 145.197Z" fill="#BC71FF"/>
    <path fill-rule="evenodd" clip-rule="evenodd" d="M946.927 106.179L944.696 110.032H949.158L946.927 106.179ZM946.927 106.849L945.278 109.697H948.576L946.927 106.849Z" fill="white"/>
    <path fill-rule="evenodd" clip-rule="evenodd" d="M788.231 106.179L786 110.032H790.462L788.231 106.179ZM788.231 106.849L786.582 109.697H789.88L788.231 106.849Z" fill="white"/>
    <path fill-rule="evenodd" clip-rule="evenodd" d="M892.342 111.185C893.434 111.185 894.319 110.3 894.319 109.208C894.319 108.116 893.434 107.231 892.342 107.231C891.249 107.231 890.364 108.116 890.364 109.208C890.364 110.3 891.249 111.185 892.342 111.185ZM892.342 111.49C893.602 111.49 894.623 110.468 894.623 109.208C894.623 107.948 893.602 106.927 892.342 106.927C891.081 106.927 890.06 107.948 890.06 109.208C890.06 110.468 891.081 111.49 892.342 111.49Z" fill="white"/>
    <path fill-rule="evenodd" clip-rule="evenodd" d="M998.027 107.738H994.907V110.881H998.027V107.738ZM994.605 107.434V111.185H998.329V107.434H994.605Z" fill="white"/>
    <path fill-rule="evenodd" clip-rule="evenodd" d="M840.421 107.738H837.302V110.881H840.421V107.738ZM837 107.434V111.185H840.723V107.434H837Z" fill="white"/>
    <path d="M577.195 96.8578C577.312 96.925 577.456 96.925 577.572 96.8578L581.975 94.3191C582.091 94.2519 582.163 94.1278 582.163 93.9934V88.916C582.163 88.7817 582.091 88.6575 581.975 88.5903L577.572 86.0516C577.456 85.9845 577.312 85.9845 577.195 86.0516L572.793 88.5903C572.676 88.6575 572.604 88.7817 572.604 88.916V93.9934C572.604 94.1278 572.676 94.2519 572.793 94.3191L577.195 96.8578ZM577.384 96.5321L572.981 93.9934V88.916L577.384 86.3774L581.786 88.916V93.9934L577.384 96.5321Z" fill="#9B51FF"/>
    <path d="M418.5 96.8578C418.616 96.925 418.76 96.925 418.876 96.8578L423.279 94.3191C423.395 94.2519 423.467 94.1278 423.467 93.9934V88.916C423.467 88.7817 423.395 88.6575 423.279 88.5903L418.876 86.0516C418.76 85.9845 418.616 85.9845 418.5 86.0516L414.097 88.5903C413.98 88.6575 413.909 88.7817 413.909 88.916V93.9934C413.909 94.1278 413.98 94.2519 414.097 94.3191L418.5 96.8578ZM418.688 96.5321L414.285 93.9934V88.916L418.688 86.3774L423.091 88.916V93.9934L418.688 96.5321Z" fill="#9B51FF"/>
    <path d="M522.661 97.4027C522.777 97.4699 522.921 97.4699 523.037 97.4027L527.44 94.8641C527.557 94.7969 527.628 94.6727 527.628 94.5383V89.461C527.628 89.3266 527.557 89.2024 527.44 89.1353L523.037 86.5966C522.921 86.5294 522.777 86.5294 522.661 86.5966L518.258 89.1353C518.142 89.2024 518.07 89.3266 518.07 89.461V94.5383C518.07 94.6727 518.142 94.7969 518.258 94.8641L522.661 97.4027ZM522.849 97.077L518.446 94.5383V89.461L522.849 86.9223L527.252 89.461V94.5383L522.849 97.077Z" fill="#9B51FF"/>
    <path d="M626.787 97.4027C626.903 97.4699 627.045 97.4699 627.161 97.4027L631.53 94.8641C631.646 94.7969 631.717 94.6727 631.717 94.5383V89.461C631.717 89.3266 631.646 89.2024 631.53 89.1353L627.161 86.5966C627.045 86.5294 626.903 86.5294 626.787 86.5966L622.418 89.1353C622.302 89.2024 622.231 89.3266 622.231 89.461V94.5383C622.231 94.6727 622.302 94.7969 622.418 94.8641L626.787 97.4027ZM626.974 97.077L622.605 94.5383V89.461L626.974 86.9223L631.343 89.461V94.5383L626.974 97.077Z" fill="#9B51FF"/>
    <path d="M469.182 97.4027C469.298 97.4699 469.44 97.4699 469.556 97.4027L473.925 94.8641C474.041 94.7969 474.112 94.6727 474.112 94.5383V89.461C474.112 89.3266 474.041 89.2024 473.925 89.1353L469.556 86.5966C469.44 86.5294 469.298 86.5294 469.182 86.5966L464.813 89.1353C464.697 89.2024 464.626 89.3266 464.626 89.461V94.5383C464.626 94.6727 464.697 94.7969 464.813 94.8641L469.182 97.4027ZM469.369 97.077L465 94.5383V89.461L469.369 86.9223L473.738 89.461V94.5383L469.369 97.077Z" fill="#9B51FF"/>
    <path d="M577.337 145.338C577.582 145.479 577.883 145.479 578.128 145.338L587.374 140.006C587.618 139.865 587.769 139.604 587.769 139.322V128.66C587.769 128.378 587.618 128.117 587.374 127.976L578.128 122.645C577.883 122.504 577.582 122.504 577.337 122.645L568.092 127.976C567.847 128.117 567.696 128.378 567.696 128.66V139.322C567.696 139.604 567.847 139.865 568.092 140.006L577.337 145.338ZM577.733 144.654L568.487 139.322V128.66L577.733 123.329L586.978 128.66V139.322L577.733 144.654Z" fill="#BC71FF"/>
    <path d="M418.642 145.338C418.886 145.479 419.188 145.479 419.432 145.338L428.678 140.006C428.923 139.865 429.073 139.604 429.073 139.322V128.66C429.073 128.378 428.923 128.117 428.678 127.976L419.432 122.645C419.188 122.504 418.886 122.504 418.642 122.645L409.396 127.976C409.151 128.117 409 128.378 409 128.66V139.322C409 139.604 409.151 139.865 409.396 140.006L418.642 145.338ZM419.037 144.654L409.791 139.322V128.66L419.037 123.329L428.283 128.66V139.322L419.037 144.654Z" fill="#BC71FF"/>
    <path d="M522.803 145.882C523.047 146.024 523.349 146.024 523.593 145.882L532.839 140.551C533.084 140.41 533.234 140.149 533.234 139.867V129.205C533.234 128.923 533.084 128.662 532.839 128.521L523.593 123.19C523.349 123.048 523.047 123.048 522.803 123.19L513.557 128.521C513.312 128.662 513.162 128.923 513.162 129.205V139.867C513.162 140.149 513.312 140.41 513.557 140.551L522.803 145.882ZM523.198 145.198L513.952 139.867V129.205L523.198 123.874L532.444 129.205V139.867L523.198 145.198Z" fill="#BC71FF"/>
    <path d="M626.891 145.882C627.134 146.024 627.433 146.024 627.676 145.882L636.851 140.551C637.094 140.41 637.244 140.149 637.244 139.867V129.205C637.244 128.923 637.094 128.662 636.851 128.521L627.676 123.19C627.433 123.048 627.134 123.048 626.891 123.19L617.715 128.521C617.472 128.662 617.323 128.923 617.323 129.205V139.867C617.323 140.149 617.472 140.41 617.715 140.551L626.891 145.882ZM627.283 145.198L618.108 139.867V129.205L627.283 123.874L636.459 129.205V139.867L627.283 145.198Z" fill="#BC71FF"/>
    <path d="M469.285 145.882C469.528 146.024 469.827 146.024 470.07 145.882L479.246 140.551C479.489 140.41 479.638 140.149 479.638 139.867V129.205C479.638 128.923 479.489 128.662 479.246 128.521L470.07 123.19C469.827 123.048 469.528 123.048 469.285 123.19L460.11 128.521C459.867 128.662 459.717 128.923 459.717 129.205V139.867C459.717 140.149 459.867 140.41 460.11 140.551L469.285 145.882ZM469.678 145.198L460.502 139.867V129.205L469.678 123.874L478.853 129.205V139.867L469.678 145.198Z" fill="#BC71FF"/>
    <path fill-rule="evenodd" clip-rule="evenodd" d="M602.102 106.179L599.872 110.032H604.333L602.102 106.179ZM602.102 106.849L600.454 109.697H603.751L602.102 106.849Z" fill="white"/>
    <path fill-rule="evenodd" clip-rule="evenodd" d="M443.407 106.179L441.176 110.032H445.637L443.407 106.179ZM443.407 106.849L441.758 109.697H445.055L443.407 106.849Z" fill="white"/>
    <path fill-rule="evenodd" clip-rule="evenodd" d="M547.517 111.185C548.609 111.185 549.495 110.3 549.495 109.208C549.495 108.116 548.609 107.231 547.517 107.231C546.425 107.231 545.54 108.116 545.54 109.208C545.54 110.3 546.425 111.185 547.517 111.185ZM547.517 111.49C548.777 111.49 549.799 110.468 549.799 109.208C549.799 107.948 548.777 106.927 547.517 106.927C546.257 106.927 545.236 107.948 545.236 109.208C545.236 110.468 546.257 111.49 547.517 111.49Z" fill="white"/>
    <path fill-rule="evenodd" clip-rule="evenodd" d="M653.203 107.738H650.083V110.881H653.203V107.738ZM649.781 107.434V111.185H653.505V107.434H649.781Z" fill="white"/>
    <path fill-rule="evenodd" clip-rule="evenodd" d="M495.597 107.738H492.478V110.881H495.597V107.738ZM492.176 107.434V111.185H495.899V107.434H492.176Z" fill="white"/>
    <path d="M717.408 119.556C718.434 120.148 719.697 120.148 720.723 119.556L759.474 97.2117C760.5 96.6203 761.131 95.5275 761.131 94.3448V49.6552C761.131 48.4725 760.5 47.3797 759.474 46.7883L720.723 24.4435C719.697 23.8522 718.434 23.8522 717.408 24.4435L678.657 46.7883C677.632 47.3797 677 48.4725 677 49.6552V94.3448C677 95.5275 677.632 96.6203 678.657 97.2117L717.408 119.556ZM719.066 116.69L680.315 94.3448V49.6552L719.066 27.3103L757.817 49.6552V94.3448L719.066 116.69Z" fill="white"/>
    <path fill-rule="evenodd" clip-rule="evenodd" d="M708.275 51.4258L733.115 52.5227L743.172 74.5991L728.984 94.7755L704.009 93.1954L693.77 69.2757L708.275 51.4258ZM724.338 89.1035L711.181 92.4947L726.654 93.4718L724.338 89.1035ZM738.477 79.5001L726.96 87.9609L729.249 92.3714L738.477 79.5001ZM705.08 75.7251L705.457 90.6112L720.68 86.7107L705.08 75.7251ZM695.406 70.983L702.585 87.6612L702.286 72.4195L695.406 70.983ZM729.924 64.0352L727.118 84.4922L740.555 74.6735L729.924 64.0352ZM726.398 64.3168L708.436 72.0559L723.793 83.7647L726.398 64.3168ZM706.093 55.735L695.852 68.4877L702.699 69.9179L706.093 55.735ZM733.03 55.8078L730.793 60.3365L739.119 68.6831L733.03 55.8078ZM709.964 54.3437L706.949 67.1589L724.319 60.4388L709.964 54.3437ZM715.621 53.0555L727.682 58.2578L730.242 53.6408L715.621 53.0555Z" fill="white"/>
    <path fill-rule="evenodd" clip-rule="evenodd" d="M759.125 49.2163L746.625 56.4301L746.375 55.997L758.875 48.7832L759.125 49.2163ZM691.625 88.2921L679.625 95.2163L679.375 94.7832L691.375 87.8591L691.625 88.2921Z" fill="white"/>
    <path fill-rule="evenodd" clip-rule="evenodd" d="M758.874 95.217L746.42 87.9225L746.673 87.4911L759.127 94.7855L758.874 95.217ZM691.324 56.2206L678.871 48.7148L679.129 48.2866L691.582 55.7923L691.324 56.2206Z" fill="white"/>
    <path fill-rule="evenodd" clip-rule="evenodd" d="M719.046 117.999L719.046 103.491L719.546 103.491L719.546 117.999L719.046 117.999ZM718.953 39.9286L718.953 25.9984L719.453 25.9984L719.453 39.9286L718.953 39.9286Z" fill="white"/>
  </g>
  <defs>
    <linearGradient id="paint0_linear" x1="720" y1="19.5001" x2="720" y2="154" gradientUnits="userSpaceOnUse">
      <stop stop-color="#4D00B4"/>
      <stop offset="1" stop-color="#9013FE"/>
    </linearGradient>
    <linearGradient id="paint1_linear" x1="720" y1="-21.0056" x2="720" y2="211.528" gradientUnits="userSpaceOnUse">
      <stop stop-color="#4D00B4"/>
      <stop offset="0.989583" stop-color="#1E075F"/>
    </linearGradient>
  </defs>
</svg>
